<svg xmlns="http://www.w3.org/2000/svg" viewBox="0 0 337.5 132.62"><defs><style>.cls-1{isolation:isolate;}.cls-2{fill:#293846;}.cls-3{fill:#004efc;}.cls-4{fill:#00c689;}.cls-5{fill:#a600ce;}</style></defs><title>cyware-social-logo-horizontal</title><g id="Layer_2" data-name="Layer 2"><g id="Social_B" data-name="Social B"><g id="Group"><g id="SOCIAL" class="cls-1"><g class="cls-1"><path class="cls-2" d="M130.06,107.86a7.64,7.64,0,0,1-2.92,6.34q-2.92,2.3-8.06,2.3a19.17,19.17,0,0,1-8.41-1.6v-4.68a23.35,23.35,0,0,0,4.4,1.54,18.86,18.86,0,0,0,4.34.56,6.94,6.94,0,0,0,4.34-1.12,3.67,3.67,0,0,0,1.4-3,3.75,3.75,0,0,0-1.28-2.87,19.44,19.44,0,0,0-5.31-2.8,14.06,14.06,0,0,1-5.84-3.83A8.12,8.12,0,0,1,111,93.51a7.24,7.24,0,0,1,2.69-6A11.15,11.15,0,0,1,121,85.37a21.24,21.24,0,0,1,8.65,1.91l-1.57,4a19,19,0,0,0-7.21-1.7,5.49,5.49,0,0,0-3.64,1,3.41,3.41,0,0,0-1.25,2.76,3.9,3.9,0,0,0,.5,2A5,5,0,0,0,118.07,97a26.61,26.61,0,0,0,4.1,2,22.53,22.53,0,0,1,4.88,2.59,7.51,7.51,0,0,1,2.28,2.71A8.23,8.23,0,0,1,130.06,107.86Z"/><path class="cls-2" d="M162.79,100.91q0,7.38-3.69,11.49t-10.47,4.1q-6.85,0-10.53-4.07t-3.67-11.57q0-7.48,3.69-11.51t10.55-4q6.75,0,10.44,4.08T162.79,100.91Zm-23.1,0c0,3.72.75,6.55,2.25,8.47a9.2,9.2,0,0,0,13.35,0q2.25-2.86,2.25-8.51c0-3.72-.75-6.53-2.23-8.45s-3.7-2.88-6.64-2.88-5.21,1-6.72,2.88S139.69,97.19,139.69,100.91Z"/><path class="cls-2" d="M182.18,89.62a8.17,8.17,0,0,0-6.71,3Q173,95.67,173,101c0,3.71.79,6.52,2.35,8.43a8.33,8.33,0,0,0,6.81,2.85,17.52,17.52,0,0,0,3.72-.38c1.21-.25,2.45-.58,3.75-1v4.24a22.61,22.61,0,0,1-8.07,1.35q-6.65,0-10.21-4c-2.38-2.68-3.56-6.53-3.56-11.52a18.55,18.55,0,0,1,1.73-8.27,12.28,12.28,0,0,1,5-5.42,15.08,15.08,0,0,1,7.68-1.89,19,19,0,0,1,8.57,1.95L189,91.44a26,26,0,0,0-3.24-1.27A11.57,11.57,0,0,0,182.18,89.62Z"/><path class="cls-2" d="M196.17,116.08V85.81h5v30.27Z"/><path class="cls-2" d="M227.9,116.08l-3-8.4H213.3l-3,8.4h-5.22l11.33-30.39h5.38l11.33,30.39Zm-4.33-12.67-2.84-8.24c-.2-.55-.49-1.42-.86-2.61s-.61-2.06-.75-2.61a45.21,45.21,0,0,1-1.64,5.57l-2.73,7.89Z"/><path class="cls-2" d="M237.15,116.08V85.81h4.95v26h12.82v4.24Z"/></g></g></g><g id="Group-2" data-name="Group"><path id="Shape" class="cls-2" d="M138,51.4a1.08,1.08,0,0,1,1,1.39,16.27,16.27,0,0,1-5.1,8.19,15.17,15.17,0,0,1-9.8,3.31,15.61,15.61,0,0,1-13.6-8.05c-.3-.65-.59-1.29-.87-1.94a13.15,13.15,0,0,1-.59-2.4,76.79,76.79,0,0,1-.45-10.39,76.72,76.72,0,0,1,.45-10.46,12.75,12.75,0,0,1,1.46-4.27,15.31,15.31,0,0,1,5.06-5.54,14.62,14.62,0,0,1,8.55-2.52,14.45,14.45,0,0,1,10.25,3.84,16.93,16.93,0,0,1,4.7,8.06A1.08,1.08,0,0,1,138,32h-4.88a1.09,1.09,0,0,1-1-.72,9.91,9.91,0,0,0-2.67-3.9,8.44,8.44,0,0,0-5.37-1.88,8.81,8.81,0,0,0-4,1,8.2,8.2,0,0,0-2.74,2.31,7.49,7.49,0,0,0-1.7,3.73,55.06,55.06,0,0,0-.48,9,53.78,53.78,0,0,0,.48,9,7.58,7.58,0,0,0,1.7,3.8,7.78,7.78,0,0,0,2.74,2.24,7.53,7.53,0,0,0,4,1q5.27,0,8-5.52a1.07,1.07,0,0,1,1-.61Zm15.84-6.15-12.2-24.61a1.12,1.12,0,0,1,0-1.05,1.08,1.08,0,0,1,.91-.5h4.56a1.08,1.08,0,0,1,1,.62l7.94,17.17a1.08,1.08,0,0,0,1.95,0L166,19.71a1.08,1.08,0,0,1,1-.62h4.56a1.07,1.07,0,0,1,.95,1.55l-12.2,24.61a1.08,1.08,0,0,0-.11.47V62.85a1.06,1.06,0,0,1-1.07,1.07H155a1.07,1.07,0,0,1-1.08-1.07V45.73a1,1,0,0,0-.1-.48m22.74-26.16h4.71a1.06,1.06,0,0,1,1,.85L189,51h.12l8.22-31.08a1.06,1.06,0,0,1,1-.79h3.12a1.08,1.08,0,0,1,1,.79L210.67,51h.12l6.67-31a1.07,1.07,0,0,1,1-.85h4.71a1.07,1.07,0,0,1,1,1.32L213.94,63.1a1.08,1.08,0,0,1-1,.82h-3.83a1.07,1.07,0,0,1-1-.8L200,31.59h-.11l-8.11,31.53a1.06,1.06,0,0,1-1,.8h-3.81a1.07,1.07,0,0,1-1-.82L175.52,20.41a1.1,1.1,0,0,1,.2-.91,1.09,1.09,0,0,1,.84-.41M251.91,53.9H237a1.05,1.05,0,0,0-1,.73l-2.85,8.56a1.06,1.06,0,0,1-1,.73h-4.69a1.07,1.07,0,0,1-.87-.45,1.1,1.1,0,0,1-.14-1l15-42.69a1.07,1.07,0,0,1,1-.71h4a1,1,0,0,1,1,.71l15,42.69a1.07,1.07,0,0,1-.13,1,1.08,1.08,0,0,1-.88.45h-4.65a1.08,1.08,0,0,1-1-.73l-2.87-8.56a1.08,1.08,0,0,0-1-.73Zm-2.57-6a1.09,1.09,0,0,0,.86-.45,1.07,1.07,0,0,0,.16-1l-5.84-18.22h-.12l-5.83,18.22a1.07,1.07,0,0,0,.15,1,1.14,1.14,0,0,0,.87.44ZM270.1,20.16a1.06,1.06,0,0,1,1.07-1.07h15.89A13.15,13.15,0,0,1,295.92,22q4.13,3.36,4.3,9.57-.12,8.55-7.38,12a1.07,1.07,0,0,0-.55.63,1.09,1.09,0,0,0,.07.83l8.74,17.31a1.07,1.07,0,0,1-1,1.55h-5.38a1.06,1.06,0,0,1-1-.61l-8.41-17.93a1.08,1.08,0,0,0-1-.62h-6.67a1.07,1.07,0,0,0-1.07,1.08v17a1.07,1.07,0,0,1-1.07,1.07h-4.43a1.08,1.08,0,0,1-1.08-1.07V20.16Zm6.57,17.51a1.07,1.07,0,0,0,1.07,1.07h8.9A6.92,6.92,0,0,0,294,31.59c0-2.35-.77-4-2.18-5.09A7.43,7.43,0,0,0,287,25.12h-9.26a1.06,1.06,0,0,0-1.07,1.06V37.67Zm34.16-18.58h25.6a1.07,1.07,0,0,1,1.07,1.07v4.25a1.07,1.07,0,0,1-1.07,1.07h-19a1.07,1.07,0,0,0-1.07,1.07V37.24a1.07,1.07,0,0,0,1.07,1.07h15.93a1.09,1.09,0,0,1,1.08,1.07v3.88a1.09,1.09,0,0,1-.32.76,1,1,0,0,1-.76.31H317.4a1.08,1.08,0,0,0-1.07,1.07V56.46a1.07,1.07,0,0,0,1.07,1.07h19a1.07,1.07,0,0,1,1.07,1.07v4.25a1.07,1.07,0,0,1-1.07,1.07h-25.6a1.07,1.07,0,0,1-1.07-1.07V20.16a1.07,1.07,0,0,1,1.07-1.07"/></g><path class="cls-3" d="M79.59,101.55l-6.4,5.35-4.41,3.7-4.26,3.58-50-59.55-3.7-4.41L2.18,39.89a6.12,6.12,0,0,1,.75-8.62l6.44-5.4,4.41-3.7L18,18.64,67.86,78.06l3.7,4.41,8.78,10.46A6.13,6.13,0,0,1,79.59,101.55Z"/><path class="cls-4" d="M80.33,50.79l-6.48,5.42-4.4,3.7-4.21,3.53L23.81,14.09,28,10.54l4.41-3.7,6.47-5.42a6.07,6.07,0,0,1,8.55.75L81.08,42.23A6.08,6.08,0,0,1,80.33,50.79Z"/><path class="cls-5" d="M58.64,118.57l-4.26,3.58L50,125.85l-6.35,5.33a6.16,6.16,0,0,1-8.67-.76L1.44,90.5a6.16,6.16,0,0,1,.76-8.68l6.36-5.34,4.4-3.7,4.27-3.57Z"/></g></g></svg>